<svg id="Layer_1" data-name="Layer 1" xmlns="http://www.w3.org/2000/svg" viewBox="0 0 713.51 100.54"><defs><style>.cls-1{fill:#231f20;}.cls-2{fill:#f36e21;}</style></defs><title>logo-vb-2</title><path class="cls-1" d="M89,421.38a13.59,13.59,0,0,1,.58,2.22,1.34,1.34,0,0,1-.31,1.23,2.54,2.54,0,0,1-1.52.51q-1.09.1-3,.1t-3.1-.06a7.65,7.65,0,0,1-1.69-.23,1.54,1.54,0,0,1-.82-0.49,2.65,2.65,0,0,1-.39-0.82L75.4,413.71H56.47l-3.19,9.85a3.14,3.14,0,0,1-.41.92,1.67,1.67,0,0,1-.82.58,6,6,0,0,1-1.6.29q-1,.08-2.71.08a25.92,25.92,0,0,1-2.8-.12,2.14,2.14,0,0,1-1.4-.56,1.52,1.52,0,0,1-.27-1.27,12.69,12.69,0,0,1,.58-2.18l15.54-44.7a3.9,3.9,0,0,1,.55-1.07,1.93,1.93,0,0,1,1-.62,7.86,7.86,0,0,1,1.89-.27q1.21-.06,3.19-0.06,2.3,0,3.66.06a9.78,9.78,0,0,1,2.12.27,2,2,0,0,1,1.09.64,3.79,3.79,0,0,1,.56,1.17Zm-23.13-37h0l-7.13,21.42H73Z" transform="translate(-43.24 -325.55)"/><path class="cls-1" d="M135.52,382.63a16.88,16.88,0,0,1-.1,1.95,6.11,6.11,0,0,1-.27,1.3,1.47,1.47,0,0,1-.43.68,1,1,0,0,1-.6.19,3.8,3.8,0,0,1-1.64-.7,24.34,24.34,0,0,0-3-1.52A32.25,32.25,0,0,0,125,383a23.12,23.12,0,0,0-6-.7,16.67,16.67,0,0,0-6.62,1.27,14.38,14.38,0,0,0-5.06,3.58,16,16,0,0,0-3.23,5.57,21.77,21.77,0,0,0-1.13,7.18,23.07,23.07,0,0,0,1.15,7.61,15.42,15.42,0,0,0,3.21,5.51,13.24,13.24,0,0,0,5,3.35,17.52,17.52,0,0,0,6.41,1.13,14.91,14.91,0,0,0,3.39-.39A12.45,12.45,0,0,0,125.2,416V404.28h-9.54a1.21,1.21,0,0,1-1.09-.88,8,8,0,0,1-.39-3,14.39,14.39,0,0,1,.1-1.83,4.48,4.48,0,0,1,.29-1.19,1.67,1.67,0,0,1,.47-0.66,1,1,0,0,1,.62-0.21h17a2.73,2.73,0,0,1,1.11.21,2.41,2.41,0,0,1,.86.64,2.94,2.94,0,0,1,.56,1,4.5,4.5,0,0,1,.19,1.38v20.05a4.79,4.79,0,0,1-.41,2,2.92,2.92,0,0,1-1.67,1.38q-1.27.51-3.13,1.05t-3.87.93q-2,.39-4,0.58t-4.11.19a31.53,31.53,0,0,1-10.81-1.73,21.21,21.21,0,0,1-13.14-13,30.74,30.74,0,0,1-1.75-10.73,31.15,31.15,0,0,1,1.87-11.12,23.54,23.54,0,0,1,5.3-8.37,22.9,22.9,0,0,1,8.27-5.28,30.39,30.39,0,0,1,10.81-1.83,36.44,36.44,0,0,1,6,.45,33.66,33.66,0,0,1,4.69,1.09,18.46,18.46,0,0,1,3.33,1.38,8.38,8.38,0,0,1,1.85,1.28,3.24,3.24,0,0,1,.76,1.54A13.79,13.79,0,0,1,135.52,382.63Z" transform="translate(-43.24 -325.55)"/><path class="cls-1" d="M156.2,423.79a1.08,1.08,0,0,1-.25.7,1.78,1.78,0,0,1-.84.51,8.18,8.18,0,0,1-1.56.31,26.43,26.43,0,0,1-5,0A8.2,8.2,0,0,1,147,425a1.78,1.78,0,0,1-.84-0.51,1.08,1.08,0,0,1-.25-0.7V376.21a1.08,1.08,0,0,1,.25-0.7A1.79,1.79,0,0,1,147,375a8.64,8.64,0,0,1,1.58-.31,21.21,21.21,0,0,1,2.45-.12,21.65,21.65,0,0,1,2.49.12,8.18,8.18,0,0,1,1.56.31,1.78,1.78,0,0,1,.84.51,1.08,1.08,0,0,1,.25.7v47.58Z" transform="translate(-43.24 -325.55)"/><path class="cls-1" d="M194.86,420.91a16.77,16.77,0,0,1-.1,2,6,6,0,0,1-.29,1.32,1.71,1.71,0,0,1-.49.76,1.06,1.06,0,0,1-.68.23H170.21a3.18,3.18,0,0,1-2.16-.76,3.11,3.11,0,0,1-.88-2.47V376.21a1.08,1.08,0,0,1,.25-0.7,1.78,1.78,0,0,1,.84-0.51,8.2,8.2,0,0,1,1.58-.31,26.43,26.43,0,0,1,5,0,8.18,8.18,0,0,1,1.56.31,1.78,1.78,0,0,1,.84.51,1.08,1.08,0,0,1,.25.7v40.54H193.3a1.12,1.12,0,0,1,.68.21,1.57,1.57,0,0,1,.49.7,5.26,5.26,0,0,1,.29,1.28A16.77,16.77,0,0,1,194.86,420.91Z" transform="translate(-43.24 -325.55)"/><path class="cls-1" d="M230.76,421.18a15.36,15.36,0,0,1-.1,1.89,4.86,4.86,0,0,1-.29,1.23,1.57,1.57,0,0,1-.49.68,1.06,1.06,0,0,1-.64.21H203.93a3.18,3.18,0,0,1-2.16-.76,3.11,3.11,0,0,1-.88-2.47V378a3.11,3.11,0,0,1,.88-2.47,3.18,3.18,0,0,1,2.16-.76h25.15a1,1,0,0,1,.62.19,1.51,1.51,0,0,1,.47.68,5.2,5.2,0,0,1,.29,1.25,15.75,15.75,0,0,1,.1,1.93,15,15,0,0,1-.1,1.85,4.86,4.86,0,0,1-.29,1.23,1.66,1.66,0,0,1-.47.68,1,1,0,0,1-.62.21h-18v12.3h15.23a1.06,1.06,0,0,1,.64.21,1.58,1.58,0,0,1,.49.66,4.56,4.56,0,0,1,.29,1.21,17.8,17.8,0,0,1,0,3.72,4.52,4.52,0,0,1-.29,1.19,1.43,1.43,0,0,1-.49.64,1.13,1.13,0,0,1-.64.19H211.1v14.21h18.15a1.06,1.06,0,0,1,.64.21,1.57,1.57,0,0,1,.49.68,4.86,4.86,0,0,1,.29,1.23A15.36,15.36,0,0,1,230.76,421.18Z" transform="translate(-43.24 -325.55)"/><path class="cls-2" d="M269.66,421.18a15.36,15.36,0,0,1-.1,1.89,4.86,4.86,0,0,1-.29,1.23,1.57,1.57,0,0,1-.49.68,1.06,1.06,0,0,1-.64.21H242.84a3.18,3.18,0,0,1-2.16-.76,3.11,3.11,0,0,1-.88-2.47V378a3.11,3.11,0,0,1,.88-2.47,3.18,3.18,0,0,1,2.16-.76H268a1,1,0,0,1,.62.19,1.51,1.51,0,0,1,.47.68,5.2,5.2,0,0,1,.29,1.25,15.75,15.75,0,0,1,.1,1.93,15,15,0,0,1-.1,1.85,4.86,4.86,0,0,1-.29,1.23,1.66,1.66,0,0,1-.47.68,1,1,0,0,1-.62.21H250v12.3h15.23a1.06,1.06,0,0,1,.64.21,1.58,1.58,0,0,1,.49.66,4.56,4.56,0,0,1,.29,1.21,17.8,17.8,0,0,1,0,3.72,4.52,4.52,0,0,1-.29,1.19,1.43,1.43,0,0,1-.49.64,1.13,1.13,0,0,1-.64.19H250v14.21h18.15a1.06,1.06,0,0,1,.64.21,1.57,1.57,0,0,1,.49.68,4.86,4.86,0,0,1,.29,1.23A15.36,15.36,0,0,1,269.66,421.18Z" transform="translate(-43.24 -325.55)"/><path class="cls-2" d="M314.6,421.34a11.53,11.53,0,0,1,.92,2.18,1.17,1.17,0,0,1-.25,1.25,3,3,0,0,1-1.69.55q-1.23.12-3.41,0.12-1.83,0-2.88-.08a8.51,8.51,0,0,1-1.65-.25,1.8,1.8,0,0,1-.88-0.49,2.82,2.82,0,0,1-.47-0.78l-9.46-18.18-9.42,18.18a3.69,3.69,0,0,1-.51.78,1.81,1.81,0,0,1-.88.49,8.59,8.59,0,0,1-1.67.25q-1.07.08-2.82,0.08-2,0-3.13-.12a2.36,2.36,0,0,1-1.5-.55,1.25,1.25,0,0,1-.16-1.25,11.65,11.65,0,0,1,1-2.18l12.07-22-11.21-20.68a15.22,15.22,0,0,1-1-2.24,1.13,1.13,0,0,1,.19-1.25,2.85,2.85,0,0,1,1.65-.51q1.21-.1,3.43-0.1,1.83,0,2.9.08a9,9,0,0,1,1.69.25,1.7,1.7,0,0,1,.88.49,4.27,4.27,0,0,1,.49.78l8.84,16.67,8.61-16.67a4.24,4.24,0,0,1,.49-0.78,1.66,1.66,0,0,1,.82-0.49,7.48,7.48,0,0,1,1.56-.25q1-.08,2.75-0.08,1.95,0,3.08.1a2.51,2.51,0,0,1,1.56.53,1.22,1.22,0,0,1,.21,1.25,13.81,13.81,0,0,1-.88,2.22l-11.21,20.56Z" transform="translate(-43.24 -325.55)"/><path class="cls-2" d="M354.75,417.56q0,1-.06,1.65a8,8,0,0,1-.18,1.17,3.32,3.32,0,0,1-.31.84,4.09,4.09,0,0,1-.62.8,7.92,7.92,0,0,1-1.65,1.15,19.47,19.47,0,0,1-3,1.34,26.17,26.17,0,0,1-4,1.07,26.67,26.67,0,0,1-4.93.43,26,26,0,0,1-9.35-1.6,18.46,18.46,0,0,1-7.09-4.77,21.32,21.32,0,0,1-4.48-7.92,35.54,35.54,0,0,1-1.56-11.06,35,35,0,0,1,1.71-11.41,23.77,23.77,0,0,1,4.79-8.37,20,20,0,0,1,7.38-5.14,24.91,24.91,0,0,1,9.48-1.75,22.83,22.83,0,0,1,4,.35,24.79,24.79,0,0,1,3.6.92,18.09,18.09,0,0,1,3,1.3,8.92,8.92,0,0,1,1.85,1.27,4.37,4.37,0,0,1,.72.88,3.26,3.26,0,0,1,.31.9,10,10,0,0,1,.18,1.28q0.06,0.74.06,1.83t-0.08,2a5.12,5.12,0,0,1-.27,1.32,1.82,1.82,0,0,1-.47.74,0.93,0.93,0,0,1-.62.23,2.7,2.7,0,0,1-1.48-.68,24.1,24.1,0,0,0-2.32-1.52,18.86,18.86,0,0,0-3.39-1.52,14.38,14.38,0,0,0-4.69-.68,11.09,11.09,0,0,0-9.36,4.73,16.45,16.45,0,0,0-2.51,5.51,32.08,32.08,0,0,0,.06,15,14.84,14.84,0,0,0,2.61,5.35,10.56,10.56,0,0,0,4.09,3.13,13.5,13.5,0,0,0,5.39,1,15.37,15.37,0,0,0,4.71-.64,19.82,19.82,0,0,0,3.41-1.42q1.42-.78,2.34-1.4a2.9,2.9,0,0,1,1.42-.62,1.11,1.11,0,0,1,.62.16,1.17,1.17,0,0,1,.39.62,6.1,6.1,0,0,1,.23,1.3Q354.75,416.16,354.75,417.56Z" transform="translate(-43.24 -325.55)"/><path class="cls-2" d="M401.43,423.79a1.08,1.08,0,0,1-.25.7,1.78,1.78,0,0,1-.84.51,8.17,8.17,0,0,1-1.56.31,21.22,21.22,0,0,1-2.45.12,22.18,22.18,0,0,1-2.51-.12,7.76,7.76,0,0,1-1.56-.31,1.77,1.77,0,0,1-.82-0.51,1.08,1.08,0,0,1-.25-0.7V403.43H372.35v20.37a1.14,1.14,0,0,1-.23.7,1.64,1.64,0,0,1-.82.51,8.17,8.17,0,0,1-1.56.31,26.43,26.43,0,0,1-5,0,8.2,8.2,0,0,1-1.58-.31,1.78,1.78,0,0,1-.84-0.51,1.08,1.08,0,0,1-.25-0.7V376.21a1.08,1.08,0,0,1,.25-0.7,1.78,1.78,0,0,1,.84-0.51,8.2,8.2,0,0,1,1.58-.31,26.43,26.43,0,0,1,5,0,8.17,8.17,0,0,1,1.56.31,1.65,1.65,0,0,1,.82.51,1.14,1.14,0,0,1,.23.7v18.5h18.85v-18.5a1.08,1.08,0,0,1,.25-0.7,1.77,1.77,0,0,1,.82-0.51,7.76,7.76,0,0,1,1.56-.31,22.18,22.18,0,0,1,2.51-.12,21.22,21.22,0,0,1,2.45.12,8.17,8.17,0,0,1,1.56.31,1.78,1.78,0,0,1,.84.51,1.08,1.08,0,0,1,.25.7v47.58Z" transform="translate(-43.24 -325.55)"/><path class="cls-2" d="M453.69,421.38a13.59,13.59,0,0,1,.58,2.22,1.34,1.34,0,0,1-.31,1.23,2.53,2.53,0,0,1-1.52.51q-1.09.1-3,.1t-3.1-.06a7.65,7.65,0,0,1-1.69-.23,1.54,1.54,0,0,1-.82-0.49,2.67,2.67,0,0,1-.39-0.82l-3.39-10.12H421.14l-3.19,9.85a3.14,3.14,0,0,1-.41.92,1.67,1.67,0,0,1-.82.58,6,6,0,0,1-1.6.29q-1,.08-2.71.08a25.92,25.92,0,0,1-2.8-.12,2.14,2.14,0,0,1-1.4-.56,1.52,1.52,0,0,1-.27-1.27,12.69,12.69,0,0,1,.58-2.18l15.54-44.7a3.92,3.92,0,0,1,.55-1.07,1.93,1.93,0,0,1,1-.62,7.86,7.86,0,0,1,1.89-.27q1.21-.06,3.19-0.06,2.3,0,3.66.06a9.78,9.78,0,0,1,2.12.27,2,2,0,0,1,1.09.64,3.78,3.78,0,0,1,.56,1.17Zm-23.13-37h0l-7.13,21.42h14.29Z" transform="translate(-43.24 -325.55)"/><path class="cls-2" d="M502.29,421.61a3.89,3.89,0,0,1-.31,1.6,3.37,3.37,0,0,1-.84,1.17,3.24,3.24,0,0,1-1.25.68,5.14,5.14,0,0,1-1.46.21h-4.36a9,9,0,0,1-2.36-.27,4.69,4.69,0,0,1-1.83-1,8.7,8.7,0,0,1-1.62-1.95q-0.78-1.23-1.75-3.17L474,395.33q-1.09-2.1-2.22-4.54t-2-4.73h-0.08q0.16,2.8.23,5.59t0.08,5.74v26.36a1.21,1.21,0,0,1-.21.7,1.6,1.6,0,0,1-.74.53,5.9,5.9,0,0,1-1.42.33,18.38,18.38,0,0,1-2.3.12,18,18,0,0,1-2.26-.12,5.57,5.57,0,0,1-1.4-.33,1.47,1.47,0,0,1-.7-0.53,1.3,1.3,0,0,1-.19-0.7V378.47a3.41,3.41,0,0,1,1.07-2.75,3.91,3.91,0,0,1,2.63-.92h5.49a10.45,10.45,0,0,1,2.49.25,5.16,5.16,0,0,1,1.81.84,6.5,6.5,0,0,1,1.5,1.62,20.79,20.79,0,0,1,1.44,2.55L487,398.48l1.69,3.29q0.84,1.62,1.62,3.23l1.52,3.17q0.74,1.56,1.44,3.12h0q-0.12-2.73-.18-5.69T493.06,400V376.32a1.14,1.14,0,0,1,.23-0.7,1.87,1.87,0,0,1,.78-0.55,5.14,5.14,0,0,1,1.44-.33,22.18,22.18,0,0,1,2.3-.1,21.24,21.24,0,0,1,2.22.1,4.39,4.39,0,0,1,1.38.33,1.58,1.58,0,0,1,.68.55,1.3,1.3,0,0,1,.19.7v45.29Z" transform="translate(-43.24 -325.55)"/><path class="cls-2" d="M553.69,382.63a16.76,16.76,0,0,1-.1,1.95,6.11,6.11,0,0,1-.27,1.3,1.47,1.47,0,0,1-.43.68,1,1,0,0,1-.6.19,3.8,3.8,0,0,1-1.64-.7,24.3,24.3,0,0,0-3-1.52,32.25,32.25,0,0,0-4.46-1.52,23.11,23.11,0,0,0-6-.7,16.68,16.68,0,0,0-6.62,1.27,14.38,14.38,0,0,0-5.06,3.58,16,16,0,0,0-3.23,5.57,21.78,21.78,0,0,0-1.13,7.18,23.07,23.07,0,0,0,1.15,7.61A15.44,15.44,0,0,0,525.5,413a13.24,13.24,0,0,0,5,3.35,17.52,17.52,0,0,0,6.41,1.13,14.91,14.91,0,0,0,3.39-.39,12.45,12.45,0,0,0,3.12-1.17V404.28h-9.54a1.21,1.21,0,0,1-1.09-.88,8,8,0,0,1-.39-3,14.39,14.39,0,0,1,.1-1.83,4.52,4.52,0,0,1,.29-1.19,1.67,1.67,0,0,1,.47-0.66,1,1,0,0,1,.62-0.21h17a2.73,2.73,0,0,1,1.11.21,2.4,2.4,0,0,1,.86.64,2.94,2.94,0,0,1,.56,1,4.5,4.5,0,0,1,.19,1.38v20.05a4.79,4.79,0,0,1-.41,2,2.92,2.92,0,0,1-1.67,1.38q-1.27.51-3.13,1.05t-3.87.93q-2,.39-4,0.58t-4.11.19a31.53,31.53,0,0,1-10.81-1.73,21.21,21.21,0,0,1-13.14-13,30.74,30.74,0,0,1-1.75-10.73,31.15,31.15,0,0,1,1.87-11.12,23.54,23.54,0,0,1,5.3-8.37,22.91,22.91,0,0,1,8.27-5.28,30.39,30.39,0,0,1,10.81-1.83,36.44,36.44,0,0,1,6,.45,33.64,33.64,0,0,1,4.69,1.09,18.46,18.46,0,0,1,3.33,1.38,8.37,8.37,0,0,1,1.85,1.28,3.24,3.24,0,0,1,.76,1.54A13.79,13.79,0,0,1,553.69,382.63Z" transform="translate(-43.24 -325.55)"/><path class="cls-2" d="M594,421.18a15.25,15.25,0,0,1-.1,1.89,4.86,4.86,0,0,1-.29,1.23,1.57,1.57,0,0,1-.49.68,1.06,1.06,0,0,1-.64.21H567.12a3.18,3.18,0,0,1-2.16-.76,3.11,3.11,0,0,1-.88-2.47V378a3.11,3.11,0,0,1,.88-2.47,3.18,3.18,0,0,1,2.16-.76h25.15a1,1,0,0,1,.62.19,1.5,1.5,0,0,1,.47.68,5.2,5.2,0,0,1,.29,1.25,15.65,15.65,0,0,1,.1,1.93,14.87,14.87,0,0,1-.1,1.85,4.86,4.86,0,0,1-.29,1.23,1.65,1.65,0,0,1-.47.68,1,1,0,0,1-.62.21h-18v12.3h15.23a1.06,1.06,0,0,1,.64.21,1.57,1.57,0,0,1,.49.66,4.56,4.56,0,0,1,.29,1.21,17.8,17.8,0,0,1,0,3.72,4.52,4.52,0,0,1-.29,1.19,1.43,1.43,0,0,1-.49.64,1.13,1.13,0,0,1-.64.19H574.29v14.21h18.15a1.06,1.06,0,0,1,.64.21,1.57,1.57,0,0,1,.49.68,4.86,4.86,0,0,1,.29,1.23A15.25,15.25,0,0,1,594,421.18Z" transform="translate(-43.24 -325.55)"/><path class="cls-2" d="M634.72,421a16.25,16.25,0,0,1-.1,1.93,5.59,5.59,0,0,1-.29,1.3,1.49,1.49,0,0,1-.51.72,1.21,1.21,0,0,1-.7.21h-29a6.16,6.16,0,0,1-1.48-.16,1.92,1.92,0,0,1-1-.6,2.83,2.83,0,0,1-.56-1.3,11.44,11.44,0,0,1-.18-2.22,17.71,17.71,0,0,1,.12-2.2,6,6,0,0,1,.43-1.64,7.6,7.6,0,0,1,.8-1.4,14.17,14.17,0,0,1,1.27-1.5l8.72-9.35a46,46,0,0,0,4.21-5,28.86,28.86,0,0,0,2.49-4.09,15.16,15.16,0,0,0,1.23-3.41,14.25,14.25,0,0,0,.33-3,7.2,7.2,0,0,0-.41-2.43,5.72,5.72,0,0,0-1.21-2,5.51,5.51,0,0,0-2-1.34,7.58,7.58,0,0,0-2.84-.49,13,13,0,0,0-4.07.58,19.57,19.57,0,0,0-3.12,1.3q-1.34.72-2.24,1.32a2.85,2.85,0,0,1-1.4.6,0.86,0.86,0,0,1-.6-0.23,1.68,1.68,0,0,1-.41-0.78,9,9,0,0,1-.25-1.46,21.68,21.68,0,0,1-.1-2.24q0-.9.06-1.5a6.8,6.8,0,0,1,.18-1.05,3.06,3.06,0,0,1,.31-0.78,4.07,4.07,0,0,1,.68-0.8,9.29,9.29,0,0,1,1.79-1.19,22.07,22.07,0,0,1,3.21-1.4,30.81,30.81,0,0,1,4.21-1.15,24,24,0,0,1,4.79-.47,21.5,21.5,0,0,1,6.87,1,13.63,13.63,0,0,1,4.89,2.76,11.09,11.09,0,0,1,2.9,4.21,14.23,14.23,0,0,1,1,5.24,25,25,0,0,1-.47,4.83,18.44,18.44,0,0,1-1.95,5.12,40.62,40.62,0,0,1-4.17,6.07,97.45,97.45,0,0,1-7.13,7.73l-5.88,6H633a1.22,1.22,0,0,1,.72.23,1.82,1.82,0,0,1,.56.72,4.53,4.53,0,0,1,.35,1.28A13.24,13.24,0,0,1,634.72,421Z" transform="translate(-43.24 -325.55)"/><path class="cls-2" d="M676.15,399.81a55.81,55.81,0,0,1-1,10.9A23.89,23.89,0,0,1,672,419a14.84,14.84,0,0,1-5.72,5.26,21.42,21.42,0,0,1-17.19.06,13.36,13.36,0,0,1-5.37-5.1,23.2,23.2,0,0,1-2.78-8.14,66.91,66.91,0,0,1-.8-10.88,54.82,54.82,0,0,1,1-10.88,24.18,24.18,0,0,1,3.19-8.31,14.85,14.85,0,0,1,5.72-5.26,21.37,21.37,0,0,1,17.17-.06,13.34,13.34,0,0,1,5.39,5.1,23,23,0,0,1,2.76,8.14A68.55,68.55,0,0,1,676.15,399.81Zm-10.32.51q0-3.58-.19-6.33a38,38,0,0,0-.6-4.77,17.52,17.52,0,0,0-1-3.43,6.9,6.9,0,0,0-1.46-2.24,4.91,4.91,0,0,0-1.95-1.19,7.86,7.86,0,0,0-2.41-.35,6.21,6.21,0,0,0-3.8,1.11,7.37,7.37,0,0,0-2.38,3.33A21.35,21.35,0,0,0,650.8,392a74.22,74.22,0,0,0-.35,7.71,76,76,0,0,0,.43,8.9,20.39,20.39,0,0,0,1.34,5.61,6,6,0,0,0,2.36,2.92A6.78,6.78,0,0,0,658,418a6.94,6.94,0,0,0,2.69-.49,5.65,5.65,0,0,0,2-1.46,8,8,0,0,0,1.46-2.45,19.06,19.06,0,0,0,1-3.43,33.77,33.77,0,0,0,.51-4.4Q665.83,403.27,665.83,400.31Z" transform="translate(-43.24 -325.55)"/><path class="cls-2" d="M715.09,421.3a12.42,12.42,0,0,1-.12,1.85,4.41,4.41,0,0,1-.33,1.21,1.64,1.64,0,0,1-.49.64,1,1,0,0,1-.62.19h-27.8a1,1,0,0,1-.58-0.19,1.64,1.64,0,0,1-.49-0.64,4.41,4.41,0,0,1-.33-1.21,12.42,12.42,0,0,1-.12-1.85,15.25,15.25,0,0,1,.1-1.89,4.31,4.31,0,0,1,.31-1.23,1.81,1.81,0,0,1,.49-0.68,1,1,0,0,1,.62-0.21h9.38V384.5L687,389a6,6,0,0,1-1.46.53,1,1,0,0,1-.9-0.23,2,2,0,0,1-.45-1.15,17.27,17.27,0,0,1-.12-2.3q0-.93,0-1.54a3.74,3.74,0,0,1,.19-1,1.89,1.89,0,0,1,.43-0.7,5,5,0,0,1,.74-0.58l10.83-7a1.57,1.57,0,0,1,.49-0.25,4.1,4.1,0,0,1,.76-0.16q0.47-.06,1.23-0.08l2,0q1.48,0,2.39.06a6.83,6.83,0,0,1,1.38.19,1.09,1.09,0,0,1,.62.37,1,1,0,0,1,.16.58v41.63h8.22a1.06,1.06,0,0,1,.64.21,1.7,1.7,0,0,1,.51.68,4.31,4.31,0,0,1,.31,1.23A15.25,15.25,0,0,1,715.09,421.3Z" transform="translate(-43.24 -325.55)"/><path class="cls-2" d="M756.76,408.37a20.76,20.76,0,0,1-1.17,7.07,15.62,15.62,0,0,1-3.43,5.61,15.85,15.85,0,0,1-5.57,3.7,20.18,20.18,0,0,1-7.63,1.34,21,21,0,0,1-6.11-.8,13.73,13.73,0,0,1-4.52-2.3,12.2,12.2,0,0,1-3.12-3.64,20.72,20.72,0,0,1-1.93-4.83,33.8,33.8,0,0,1-1-5.84Q722,405.53,722,402q0-3,.29-6.19a37.36,37.36,0,0,1,1.13-6.35,27.63,27.63,0,0,1,2.36-5.94,17.44,17.44,0,0,1,9.72-8.31,23.54,23.54,0,0,1,8.08-1.25,25.64,25.64,0,0,1,3,.18q1.5,0.18,2.78.45a14.08,14.08,0,0,1,2.18.62,4.55,4.55,0,0,1,1.19.6,1.84,1.84,0,0,1,.45.56,3.54,3.54,0,0,1,.25.68,5.1,5.1,0,0,1,.14.92q0,0.55,0,1.32,0,1.21-.06,2a5.07,5.07,0,0,1-.21,1.25,1.27,1.27,0,0,1-.43.64,1.11,1.11,0,0,1-.66.19,3.92,3.92,0,0,1-1.21-.25q-0.74-.25-1.79-0.57a20,20,0,0,0-5.76-.78,11.17,11.17,0,0,0-5.33,1.17,9.82,9.82,0,0,0-3.54,3.17,13.83,13.83,0,0,0-2,4.65,25.92,25.92,0,0,0-.66,5.61,20.56,20.56,0,0,1,2-1.09,15.56,15.56,0,0,1,2.41-.93,23.23,23.23,0,0,1,2.82-.64,19.66,19.66,0,0,1,3.23-.25,18.19,18.19,0,0,1,6.54,1.05,11.28,11.28,0,0,1,4.46,3,12.16,12.16,0,0,1,2.55,4.71A21.65,21.65,0,0,1,756.76,408.37Zm-10,1a15.42,15.42,0,0,0-.35-3.49,6.66,6.66,0,0,0-1.13-2.53,4.8,4.8,0,0,0-2.06-1.56,8.23,8.23,0,0,0-3.12-.53,11.74,11.74,0,0,0-2.14.19,14.21,14.21,0,0,0-2.06.55,14.42,14.42,0,0,0-1.95.84,18.87,18.87,0,0,0-1.75,1,43.08,43.08,0,0,0,.47,7,13.87,13.87,0,0,0,1.38,4.42,5.42,5.42,0,0,0,2.3,2.32,7.18,7.18,0,0,0,3.21.68,7,7,0,0,0,3.13-.66,6.12,6.12,0,0,0,2.24-1.87,8.78,8.78,0,0,0,1.36-2.82A12.65,12.65,0,0,0,746.71,409.35Z" transform="translate(-43.24 -325.55)"/><path class="cls-1" d="M59.53,357.5a1.13,1.13,0,0,1-.26.42,1.11,1.11,0,0,1-.46.26,3.36,3.36,0,0,1-.75.13q-0.46,0-1.14,0H56a5.06,5.06,0,0,1-.67-0.06l-0.48-.11a1.24,1.24,0,0,1-.34-0.15,0.76,0.76,0,0,1-.22-0.22,1.71,1.71,0,0,1-.15-0.32L44.25,329.3a2.9,2.9,0,0,1-.2-0.83,0.54,0.54,0,0,1,.2-0.48,1.34,1.34,0,0,1,.68-0.21q0.47,0,1.27,0t1,0a2,2,0,0,1,.6.13,0.74,0.74,0,0,1,.32.25,2,2,0,0,1,.2.39L57,354.05h0l8.46-25.48a1.83,1.83,0,0,1,.16-0.42A0.63,0.63,0,0,1,66,327.9a2.36,2.36,0,0,1,.66-0.13q0.42,0,1.13,0a8.79,8.79,0,0,1,1.15.06,1,1,0,0,1,.57.22,0.58,0.58,0,0,1,.12.48,3.82,3.82,0,0,1-.22.83Z" transform="translate(-43.24 -325.55)"/><path class="cls-1" d="M87.28,357.64a0.49,0.49,0,0,1-.19.42,1.32,1.32,0,0,1-.52.21,4.92,4.92,0,0,1-1,.07,5.34,5.34,0,0,1-1-.07,1.15,1.15,0,0,1-.53-0.21,0.53,0.53,0,0,1-.16-0.42v-2.11a10.41,10.41,0,0,1-3.08,2.3,8.17,8.17,0,0,1-3.6.82,9.8,9.8,0,0,1-3-.43A6.52,6.52,0,0,1,72,357a5.62,5.62,0,0,1-1.48-2,6.67,6.67,0,0,1-.53-2.72,6.29,6.29,0,0,1,.73-3.09A6,6,0,0,1,72.78,347a10.25,10.25,0,0,1,3.33-1.3,20.67,20.67,0,0,1,4.43-.43h2.91v-1.64a8.16,8.16,0,0,0-.26-2.16,3.69,3.69,0,0,0-.83-1.56,3.57,3.57,0,0,0-1.49-.94,6.94,6.94,0,0,0-2.25-.32,9,9,0,0,0-2.57.34,13.72,13.72,0,0,0-2,.75q-0.86.41-1.43,0.75a2,2,0,0,1-.86.34,0.58,0.58,0,0,1-.33-0.09,0.8,0.8,0,0,1-.25-0.28,1.45,1.45,0,0,1-.15-0.48,4.9,4.9,0,0,1,0-1.57,1.34,1.34,0,0,1,.4-0.64,5.1,5.1,0,0,1,1.09-.71,12,12,0,0,1,1.78-.75,16.17,16.17,0,0,1,2.2-.56,13.15,13.15,0,0,1,2.41-.22,12.66,12.66,0,0,1,3.87.52,6.26,6.26,0,0,1,2.58,1.51A5.85,5.85,0,0,1,86.84,340a12,12,0,0,1,.45,3.45v14.23Zm-9.84-28a2.49,2.49,0,0,1-.47,1.76,2.45,2.45,0,0,1-1.73.47,2.4,2.4,0,0,1-1.71-.46,2.45,2.45,0,0,1-.45-1.7,2.58,2.58,0,0,1,.46-1.78A3.42,3.42,0,0,1,77,328,2.5,2.5,0,0,1,77.44,329.68Zm6,18.33h-3.3a12.46,12.46,0,0,0-2.77.27,5.7,5.7,0,0,0-1.95.8,3.3,3.3,0,0,0-1.14,1.27,3.8,3.8,0,0,0-.36,1.7,3.4,3.4,0,0,0,1,2.61,4.11,4.11,0,0,0,2.92,1,5.43,5.43,0,0,0,2.82-.77,12.17,12.17,0,0,0,2.73-2.37V348Zm2.3-18.33a2.49,2.49,0,0,1-.47,1.76,2.45,2.45,0,0,1-1.73.47,2.4,2.4,0,0,1-1.71-.46,2.45,2.45,0,0,1-.45-1.7,2.58,2.58,0,0,1,.46-1.78,3.42,3.42,0,0,1,3.46,0A2.5,2.5,0,0,1,85.74,329.68Z" transform="translate(-43.24 -325.55)"/><path class="cls-1" d="M107.63,351.87a6.67,6.67,0,0,1-.6,2.88,5.87,5.87,0,0,1-1.7,2.13,7.67,7.67,0,0,1-2.62,1.31,11.91,11.91,0,0,1-3.35.45,12.85,12.85,0,0,1-4-.62,9.5,9.5,0,0,1-1.37-.56,4,4,0,0,1-.82-0.53,1.35,1.35,0,0,1-.37-0.66,4.46,4.46,0,0,1-.12-1.15,5,5,0,0,1,0-.75,2.54,2.54,0,0,1,.12-0.49,0.52,0.52,0,0,1,.2-0.27,0.53,0.53,0,0,1,.29-0.08,1.67,1.67,0,0,1,.76.32q0.5,0.32,1.24.69a11.45,11.45,0,0,0,1.75.69,7.75,7.75,0,0,0,2.32.32,7,7,0,0,0,1.78-.21,4.31,4.31,0,0,0,1.38-.62,2.76,2.76,0,0,0,.9-1,3.32,3.32,0,0,0,.32-1.5,2.43,2.43,0,0,0-.46-1.5,4.4,4.4,0,0,0-1.21-1.08,10,10,0,0,0-1.69-.83L98.52,348a19.94,19.94,0,0,1-1.95-.9,7.44,7.44,0,0,1-1.7-1.23,5.61,5.61,0,0,1-1.21-1.73,5.81,5.81,0,0,1-.46-2.41,6,6,0,0,1,.48-2.38,5.52,5.52,0,0,1,1.44-2,7.23,7.23,0,0,1,2.4-1.37,10,10,0,0,1,3.36-.52,10.25,10.25,0,0,1,1.69.14,11.58,11.58,0,0,1,1.52.35,7.33,7.33,0,0,1,1.16.46,5,5,0,0,1,.73.43,1.28,1.28,0,0,1,.33.33,1,1,0,0,1,.12.32q0,0.18.07,0.43a4.79,4.79,0,0,1,0,.63,5.89,5.89,0,0,1,0,.69,1.73,1.73,0,0,1-.12.48,0.62,0.62,0,0,1-.2.27,0.44,0.44,0,0,1-.26.08,1.3,1.3,0,0,1-.61-0.26,8.54,8.54,0,0,0-1-.55,11.39,11.39,0,0,0-1.49-.55,6.79,6.79,0,0,0-2-.26,6.11,6.11,0,0,0-1.73.22,3.33,3.33,0,0,0-1.23.63,2.68,2.68,0,0,0-.73,1,3,3,0,0,0-.25,1.22,2.48,2.48,0,0,0,.47,1.54,4.47,4.47,0,0,0,1.22,1.09,10.27,10.27,0,0,0,1.71.84l2,0.77q1,0.4,2,.89a7.36,7.36,0,0,1,1.72,1.2,5.4,5.4,0,0,1,1.21,1.69A5.53,5.53,0,0,1,107.63,351.87Z" transform="translate(-43.24 -325.55)"/><path class="cls-1" d="M123.59,356.07a4.91,4.91,0,0,1-.09,1.08,1.21,1.21,0,0,1-.28.59,1.84,1.84,0,0,1-.56.35,4.59,4.59,0,0,1-.86.27q-0.48.11-1,.18a8.33,8.33,0,0,1-1.08.07,8.12,8.12,0,0,1-2.81-.43,4.55,4.55,0,0,1-1.92-1.31,5.41,5.41,0,0,1-1.09-2.23,13.1,13.1,0,0,1-.34-3.18V339.12h-3a0.63,0.63,0,0,1-.56-0.37,2.62,2.62,0,0,1-.21-1.22,4.05,4.05,0,0,1,.06-0.75,2.15,2.15,0,0,1,.15-0.5,0.59,0.59,0,0,1,.25-0.28,0.71,0.71,0,0,1,.34-0.08h2.93v-5a0.59,0.59,0,0,1,.08-0.3,0.67,0.67,0,0,1,.3-0.25,2,2,0,0,1,.6-0.15,7.77,7.77,0,0,1,.94,0,8,8,0,0,1,1,0,1.86,1.86,0,0,1,.59.15,0.77,0.77,0,0,1,.3.25,0.54,0.54,0,0,1,.09.3v5h5.41a0.64,0.64,0,0,1,.33.08,0.68,0.68,0,0,1,.25.28,1.6,1.6,0,0,1,.15.5,5,5,0,0,1,0,.75,2.62,2.62,0,0,1-.21,1.22,0.63,0.63,0,0,1-.56.38H117.4v11.77a6.7,6.7,0,0,0,.64,3.29,2.44,2.44,0,0,0,2.31,1.11,4,4,0,0,0,1-.11q0.42-.11.75-0.22l0.56-.22a1,1,0,0,1,.42-0.11,0.45,0.45,0,0,1,.22.06,0.39,0.39,0,0,1,.16.22,2.69,2.69,0,0,1,.11.45A4.39,4.39,0,0,1,123.59,356.07Z" transform="translate(-43.24 -325.55)"/><path class="cls-1" d="M146.18,346.15a1.62,1.62,0,0,1-.46,1.3,1.58,1.58,0,0,1-1,.39H130.78a13,13,0,0,0,.35,3.16,6.1,6.1,0,0,0,1.18,2.41,5.3,5.3,0,0,0,2.14,1.55,8.54,8.54,0,0,0,3.23.54,13.2,13.2,0,0,0,2.68-.25,15.91,15.91,0,0,0,2-.55q0.86-.3,1.41-0.55a2.32,2.32,0,0,1,.84-0.25,0.54,0.54,0,0,1,.29.08,0.53,0.53,0,0,1,.2.25,1.72,1.72,0,0,1,.11.46,6.12,6.12,0,0,1,0,.71,5.12,5.12,0,0,1,0,.53q0,0.22-.06.4a1,1,0,0,1-.12.32,1.33,1.33,0,0,1-.21.27,3.45,3.45,0,0,1-.76.42,11.1,11.1,0,0,1-1.64.57,22.86,22.86,0,0,1-2.33.5,17,17,0,0,1-2.82.22,13.07,13.07,0,0,1-4.56-.73,8.46,8.46,0,0,1-3.29-2.16,9.22,9.22,0,0,1-2-3.59,16.72,16.72,0,0,1-.68-5,15.8,15.8,0,0,1,.7-4.89,10.35,10.35,0,0,1,2-3.68,8.86,8.86,0,0,1,3.2-2.32,10.49,10.49,0,0,1,4.2-.81,10.14,10.14,0,0,1,4.23.8,8,8,0,0,1,2.87,2.14,8.62,8.62,0,0,1,1.65,3.16,13.85,13.85,0,0,1,.53,3.88v0.7ZM142.29,345a7,7,0,0,0-1.36-4.78,5.16,5.16,0,0,0-4.23-1.73,5.6,5.6,0,0,0-2.52.54,5.46,5.46,0,0,0-1.82,1.43,6.54,6.54,0,0,0-1.13,2.07,8.65,8.65,0,0,0-.45,2.47h11.51Z" transform="translate(-43.24 -325.55)"/><path class="cls-1" d="M164.39,337.9q0,0.52,0,.87a2.15,2.15,0,0,1-.09.55,0.8,0.8,0,0,1-.18.3,0.4,0.4,0,0,1-.29.11,1.3,1.3,0,0,1-.46-0.11l-0.61-.21q-0.34-.11-0.76-0.2a4.21,4.21,0,0,0-.91-0.09,3,3,0,0,0-1.15.23,4.48,4.48,0,0,0-1.18.77,9.63,9.63,0,0,0-1.3,1.43q-0.68.89-1.5,2.18v13.88a0.52,0.52,0,0,1-.09.32,0.74,0.74,0,0,1-.3.22,2.14,2.14,0,0,1-.59.14,8,8,0,0,1-1,0,7.77,7.77,0,0,1-.94,0,2.32,2.32,0,0,1-.6-0.14,0.64,0.64,0,0,1-.3-0.22,0.58,0.58,0,0,1-.08-0.32V336.52a0.65,0.65,0,0,1,.07-0.32,0.62,0.62,0,0,1,.28-0.23,1.59,1.59,0,0,1,.54-0.14,8.5,8.5,0,0,1,.87,0q0.52,0,.86,0a1.38,1.38,0,0,1,.53.14,0.74,0.74,0,0,1,.27.23,0.58,0.58,0,0,1,.08.32v3.07a16.54,16.54,0,0,1,1.63-2.06,9,9,0,0,1,1.44-1.25,4.46,4.46,0,0,1,1.35-.63,5.27,5.27,0,0,1,1.35-.18q0.3,0,.69,0a6.41,6.41,0,0,1,.81.13,7,7,0,0,1,.76.21,1.6,1.6,0,0,1,.48.23,0.66,0.66,0,0,1,.19.22,1.4,1.4,0,0,1,.08.27,3,3,0,0,1,0,.48Q164.39,337.36,164.39,337.9Z" transform="translate(-43.24 -325.55)"/><path class="cls-1" d="M188.21,346.79a18.76,18.76,0,0,1-.6,4.93,11,11,0,0,1-1.76,3.74,7.77,7.77,0,0,1-2.85,2.37,8.74,8.74,0,0,1-3.87.82,8.21,8.21,0,0,1-1.86-.2,6.68,6.68,0,0,1-1.68-.64,10.25,10.25,0,0,1-1.64-1.12,20.33,20.33,0,0,1-1.73-1.64v2.58a0.58,0.58,0,0,1-.09.33,0.62,0.62,0,0,1-.3.22,2.48,2.48,0,0,1-.53.13,6.9,6.9,0,0,1-1.61,0,2.48,2.48,0,0,1-.54-0.13,0.49,0.49,0,0,1-.28-0.22,0.72,0.72,0,0,1-.07-0.33V326.3a0.64,0.64,0,0,1,.08-0.33,0.61,0.61,0,0,1,.3-0.23,2.32,2.32,0,0,1,.6-0.14,7.77,7.77,0,0,1,.94,0,8,8,0,0,1,1,0,2.14,2.14,0,0,1,.59.14,0.69,0.69,0,0,1,.3.23,0.58,0.58,0,0,1,.09.33v12.63a15.66,15.66,0,0,1,1.82-1.62,10.77,10.77,0,0,1,1.72-1.07,7.66,7.66,0,0,1,1.69-.6,8.19,8.19,0,0,1,1.78-.19,7.91,7.91,0,0,1,3.93.91,7.59,7.59,0,0,1,2.65,2.45,10.74,10.74,0,0,1,1.49,3.6A19.62,19.62,0,0,1,188.21,346.79Zm-4,.45a19.61,19.61,0,0,0-.25-3.14,8.84,8.84,0,0,0-.86-2.7,5.23,5.23,0,0,0-1.63-1.89,4.27,4.27,0,0,0-2.52-.71,5.33,5.33,0,0,0-1.49.21,5.56,5.56,0,0,0-1.49.7A11.17,11.17,0,0,0,174.4,341a18.2,18.2,0,0,0-1.73,1.95v8.41a16,16,0,0,0,3.07,3,5.25,5.25,0,0,0,3,1,4.35,4.35,0,0,0,2.5-.7,5.37,5.37,0,0,0,1.69-1.86,9,9,0,0,0,.94-2.6A14.54,14.54,0,0,0,184.2,347.23Z" transform="translate(-43.24 -325.55)"/><path class="cls-1" d="M213.64,346.83a15.8,15.8,0,0,1-.68,4.75,10.47,10.47,0,0,1-2,3.74,9.19,9.19,0,0,1-3.37,2.45,11.73,11.73,0,0,1-4.7.88,12.17,12.17,0,0,1-4.54-.77,8.29,8.29,0,0,1-3.22-2.25,9.53,9.53,0,0,1-1.92-3.59,16.64,16.64,0,0,1-.63-4.78,16.06,16.06,0,0,1,.67-4.75,10.33,10.33,0,0,1,2-3.74,9.09,9.09,0,0,1,3.36-2.44,11.84,11.84,0,0,1,4.71-.87,12.17,12.17,0,0,1,4.54.77,8.29,8.29,0,0,1,3.22,2.25,9.66,9.66,0,0,1,1.93,3.59A16.26,16.26,0,0,1,213.64,346.83Zm-4,.26a15.74,15.74,0,0,0-.32-3.23,8,8,0,0,0-1.05-2.67,5.22,5.22,0,0,0-2-1.82,6.58,6.58,0,0,0-3.12-.67,6.68,6.68,0,0,0-3,.61,5.44,5.44,0,0,0-2,1.72,7.72,7.72,0,0,0-1.19,2.64,13.39,13.39,0,0,0-.39,3.33,15.86,15.86,0,0,0,.32,3.26,7.67,7.67,0,0,0,1.06,2.66,5.34,5.34,0,0,0,2,1.8,6.58,6.58,0,0,0,3.12.67,6.69,6.69,0,0,0,3-.61,5.46,5.46,0,0,0,2.06-1.71,7.44,7.44,0,0,0,1.18-2.62A13.89,13.89,0,0,0,209.63,347.09Z" transform="translate(-43.24 -325.55)"/><path class="cls-1" d="M244.64,356.07a4.74,4.74,0,0,1-.09,1.07,1.14,1.14,0,0,1-.29.57,2.1,2.1,0,0,1-.55.35,4.5,4.5,0,0,1-.83.28,9.36,9.36,0,0,1-1,.19,8.42,8.42,0,0,1-1.07.07,8.2,8.2,0,0,1-2.84-.43,4.46,4.46,0,0,1-1.91-1.31,5.61,5.61,0,0,1-1.09-2.23,12.68,12.68,0,0,1-.35-3.18V339.12H224.11v11.77a6.7,6.7,0,0,0,.64,3.29,2.44,2.44,0,0,0,2.31,1.11,4,4,0,0,0,1-.11q0.42-.11.75-0.22l0.56-.22a1,1,0,0,1,.42-0.11,0.45,0.45,0,0,1,.22.06,0.39,0.39,0,0,1,.16.22,2.69,2.69,0,0,1,.11.45,4.39,4.39,0,0,1,0,.7q0,0.4,0,.63t-0.06.43a1.16,1.16,0,0,1-.12.35,1.12,1.12,0,0,1-.26.3,2.09,2.09,0,0,1-.53.3,4.62,4.62,0,0,1-.82.26q-0.47.11-1,.18a8.33,8.33,0,0,1-1.08.07,8.12,8.12,0,0,1-2.81-.43,4.55,4.55,0,0,1-1.92-1.31,5.41,5.41,0,0,1-1.09-2.23,13.1,13.1,0,0,1-.34-3.18V339.12h-3a0.63,0.63,0,0,1-.56-0.37,2.62,2.62,0,0,1-.21-1.22,4.05,4.05,0,0,1,.06-0.75,2.15,2.15,0,0,1,.15-0.5A0.59,0.59,0,0,1,217,336a0.71,0.71,0,0,1,.34-0.08h2.93v-5a0.59,0.59,0,0,1,.08-0.3,0.67,0.67,0,0,1,.3-0.25,2,2,0,0,1,.6-0.15,7.77,7.77,0,0,1,.94,0,8,8,0,0,1,1,0,1.86,1.86,0,0,1,.59.15,0.77,0.77,0,0,1,.3.25,0.54,0.54,0,0,1,.09.3v5h10.48v-6a0.58,0.58,0,0,1,.09-0.33,0.62,0.62,0,0,1,.32-0.22,3.23,3.23,0,0,1,.6-0.14,7.53,7.53,0,0,1,1.88,0,3.23,3.23,0,0,1,.6.14,0.62,0.62,0,0,1,.32.22,0.58,0.58,0,0,1,.09.33v6h5.39a0.64,0.64,0,0,1,.33.08,0.68,0.68,0,0,1,.25.28,1.6,1.6,0,0,1,.15.5,5,5,0,0,1,0,.75,2.62,2.62,0,0,1-.21,1.22,0.62,0.62,0,0,1-.54.38h-5.41v11.77a6.81,6.81,0,0,0,.63,3.29,2.41,2.41,0,0,0,2.3,1.11,4,4,0,0,0,.95-0.11,7.69,7.69,0,0,0,.76-0.22l0.57-.22a1.09,1.09,0,0,1,.41-0.11,0.43,0.43,0,0,1,.23.06,0.42,0.42,0,0,1,.15.22,2.69,2.69,0,0,1,.11.45A4.39,4.39,0,0,1,244.64,356.07Z" transform="translate(-43.24 -325.55)"/><path class="cls-1" d="M267.26,346.15a1.62,1.62,0,0,1-.46,1.3,1.58,1.58,0,0,1-1,.39H251.86a13,13,0,0,0,.35,3.16,6.1,6.1,0,0,0,1.18,2.41,5.29,5.29,0,0,0,2.14,1.55,8.54,8.54,0,0,0,3.23.54,13.2,13.2,0,0,0,2.68-.25,15.9,15.9,0,0,0,2-.55q0.86-.3,1.41-0.55a2.32,2.32,0,0,1,.84-0.25,0.53,0.53,0,0,1,.29.08,0.52,0.52,0,0,1,.2.25,1.72,1.72,0,0,1,.11.46,6.14,6.14,0,0,1,0,.71,5.12,5.12,0,0,1,0,.53q0,0.22-.06.4a1,1,0,0,1-.12.32,1.33,1.33,0,0,1-.21.27,3.45,3.45,0,0,1-.76.42,11.1,11.1,0,0,1-1.64.57,22.86,22.86,0,0,1-2.33.5,17,17,0,0,1-2.82.22,13.07,13.07,0,0,1-4.56-.73,8.46,8.46,0,0,1-3.29-2.16,9.22,9.22,0,0,1-2-3.59,16.72,16.72,0,0,1-.68-5,15.8,15.8,0,0,1,.7-4.89,10.35,10.35,0,0,1,2-3.68,8.86,8.86,0,0,1,3.2-2.32,10.49,10.49,0,0,1,4.2-.81,10.14,10.14,0,0,1,4.23.8,8,8,0,0,1,2.87,2.14,8.62,8.62,0,0,1,1.65,3.16,13.85,13.85,0,0,1,.53,3.88v0.7ZM263.37,345a7,7,0,0,0-1.36-4.78,5.16,5.16,0,0,0-4.23-1.73,5.6,5.6,0,0,0-2.52.54,5.46,5.46,0,0,0-1.82,1.43,6.53,6.53,0,0,0-1.13,2.07,8.63,8.63,0,0,0-.45,2.47h11.51Z" transform="translate(-43.24 -325.55)"/><path class="cls-1" d="M291.31,357.61a0.52,0.52,0,0,1-.09.32,0.74,0.74,0,0,1-.3.22,2.14,2.14,0,0,1-.59.14,7.77,7.77,0,0,1-.94,0,8,8,0,0,1-1,0,2.14,2.14,0,0,1-.59-0.14,0.74,0.74,0,0,1-.3-0.22,0.52,0.52,0,0,1-.09-0.32V345.26a12.14,12.14,0,0,0-.28-2.91,6,6,0,0,0-.82-1.9,3.56,3.56,0,0,0-1.39-1.22,4.42,4.42,0,0,0-2-.42,5,5,0,0,0-2.91,1,15.74,15.74,0,0,0-3,3v14.74a0.52,0.52,0,0,1-.09.32,0.74,0.74,0,0,1-.3.22,2.14,2.14,0,0,1-.59.14,8,8,0,0,1-1,0,7.77,7.77,0,0,1-.94,0,2.32,2.32,0,0,1-.6-0.14,0.64,0.64,0,0,1-.3-0.22,0.58,0.58,0,0,1-.08-0.32V336.52a0.65,0.65,0,0,1,.07-0.32,0.62,0.62,0,0,1,.28-0.23,1.59,1.59,0,0,1,.54-0.14,8.5,8.5,0,0,1,.87,0q0.52,0,.86,0a1.38,1.38,0,0,1,.53.14,0.74,0.74,0,0,1,.27.23,0.58,0.58,0,0,1,.08.32v2.79a13,13,0,0,1,3.55-2.92,7.64,7.64,0,0,1,3.57-.93,7.94,7.94,0,0,1,3.55.71,6.39,6.39,0,0,1,2.33,1.91,7.61,7.61,0,0,1,1.28,2.8,16.67,16.67,0,0,1,.39,3.86v12.87Z" transform="translate(-43.24 -325.55)"/></svg>